<mxfile host="Electron" agent="Mozilla/5.0 (X11; Linux x86_64) AppleWebKit/537.36 (KHTML, like Gecko) draw.io/27.0.9 Chrome/134.0.6998.205 Electron/35.7.2 Safari/537.36" version="27.0.9">
  <diagram name="Page-1" id="jM-wK1B-SedQ_AcSckPM">
    <mxGraphModel dx="899" dy="1414" grid="1" gridSize="10" guides="1" tooltips="1" connect="1" arrows="1" fold="1" page="1" pageScale="1" pageWidth="591" pageHeight="787" math="0" shadow="0">
      <root>
        <mxCell id="0" />
        <mxCell id="1" parent="0" />
        <mxCell id="mrjyGGpw2v-9HANdxBM8-124" value="Flow ID: 1" style="rounded=0;whiteSpace=wrap;html=1;" parent="1" vertex="1">
          <mxGeometry x="140.31" y="696" width="60" height="29" as="geometry" />
        </mxCell>
        <mxCell id="mrjyGGpw2v-9HANdxBM8-123" value="Flow ID: 1" style="rounded=0;whiteSpace=wrap;html=1;" parent="1" vertex="1">
          <mxGeometry x="135.31" y="701" width="60" height="30" as="geometry" />
        </mxCell>
        <mxCell id="mrjyGGpw2v-9HANdxBM8-115" value="detect_dup_acks" style="rounded=1;whiteSpace=wrap;html=1;" parent="1" vertex="1">
          <mxGeometry x="200.31" y="630" width="110" height="20" as="geometry" />
        </mxCell>
        <mxCell id="mrjyGGpw2v-9HANdxBM8-114" value="detect_dup_acks" style="rounded=1;whiteSpace=wrap;html=1;" parent="1" vertex="1">
          <mxGeometry x="193.78" y="635" width="110" height="20" as="geometry" />
        </mxCell>
        <mxCell id="mrjyGGpw2v-9HANdxBM8-1" value="" style="rounded=1;whiteSpace=wrap;html=1;" parent="1" vertex="1">
          <mxGeometry x="60" y="130" width="170" height="160" as="geometry" />
        </mxCell>
        <mxCell id="mrjyGGpw2v-9HANdxBM8-79" value="" style="endArrow=classic;html=1;rounded=0;exitX=1;exitY=0.5;exitDx=0;exitDy=0;entryX=0;entryY=0.188;entryDx=0;entryDy=0;entryPerimeter=0;" parent="1" source="mrjyGGpw2v-9HANdxBM8-66" target="mrjyGGpw2v-9HANdxBM8-3" edge="1">
          <mxGeometry width="50" height="50" relative="1" as="geometry">
            <mxPoint x="240" y="320" as="sourcePoint" />
            <mxPoint x="290" y="270" as="targetPoint" />
          </mxGeometry>
        </mxCell>
        <mxCell id="mrjyGGpw2v-9HANdxBM8-2" value="Kernel" style="text;html=1;align=center;verticalAlign=middle;resizable=0;points=[];autosize=1;strokeColor=none;fillColor=none;" parent="1" vertex="1">
          <mxGeometry x="90" y="100" width="60" height="30" as="geometry" />
        </mxCell>
        <mxCell id="mrjyGGpw2v-9HANdxBM8-3" value="" style="rounded=1;whiteSpace=wrap;html=1;" parent="1" vertex="1">
          <mxGeometry x="280" y="130" width="130" height="160" as="geometry" />
        </mxCell>
        <mxCell id="mrjyGGpw2v-9HANdxBM8-4" value="Application" style="text;html=1;align=center;verticalAlign=middle;resizable=0;points=[];autosize=1;strokeColor=none;fillColor=none;" parent="1" vertex="1">
          <mxGeometry x="305" y="100" width="80" height="30" as="geometry" />
        </mxCell>
        <mxCell id="mrjyGGpw2v-9HANdxBM8-29" value="" style="group" parent="1" vertex="1" connectable="0">
          <mxGeometry x="220" y="150" width="20" height="20" as="geometry" />
        </mxCell>
        <mxCell id="mrjyGGpw2v-9HANdxBM8-16" value="&lt;span style=&quot;color: rgba(0, 0, 0, 0); font-family: monospace; font-size: 0px; text-align: start; text-wrap: nowrap;&quot;&gt;%3CmxGraphModel%3E%3Croot%3E%3CmxCell%20id%3D%220%22%2F%3E%3CmxCell%20id%3D%221%22%20parent%3D%220%22%2F%3E%3CmxCell%20id%3D%222%22%20value%3D%22%22%20style%3D%22html%3D1%3BverticalLabelPosition%3Dbottom%3Balign%3Dcenter%3BlabelBackgroundColor%3D%23ffffff%3BverticalAlign%3Dtop%3BstrokeWidth%3D2%3BstrokeColor%3D%23666666%3Bshadow%3D0%3Bdashed%3D0%3Bshape%3Dmxgraph.ios7.icons.settings%3BfillColor%3D%23f5f5f5%3BfontColor%3D%23333333%3B%22%20vertex%3D%221%22%20parent%3D%221%22%3E%3CmxGeometry%20x%3D%22100%22%20y%3D%22216%22%20width%3D%2230%22%20height%3D%2230%22%20as%3D%22geometry%22%2F%3E%3C%2FmxCell%3E%3C%2Froot%3E%3C%2FmxGraphModel%3E&lt;/span&gt;" style="ellipse;whiteSpace=wrap;html=1;aspect=fixed;fillColor=#f5f5f5;fontColor=#333333;strokeColor=#666666;" parent="mrjyGGpw2v-9HANdxBM8-29" vertex="1">
          <mxGeometry width="20" height="20" as="geometry" />
        </mxCell>
        <mxCell id="mrjyGGpw2v-9HANdxBM8-28" value="" style="verticalLabelPosition=bottom;verticalAlign=top;html=1;shape=mxgraph.basic.half_circle;fillColor=#dae8fc;strokeColor=#6c8ebf;" parent="mrjyGGpw2v-9HANdxBM8-29" vertex="1">
          <mxGeometry y="10" width="20" height="10" as="geometry" />
        </mxCell>
        <mxCell id="mrjyGGpw2v-9HANdxBM8-17" value="&lt;span style=&quot;color: rgba(0, 0, 0, 0); font-family: monospace; font-size: 0px; text-align: start; text-wrap: nowrap;&quot;&gt;%3CmxGraphModel%3E%3Croot%3E%3CmxCell%20id%3D%220%22%2F%3E%3CmxCell%20id%3D%221%22%20parent%3D%220%22%2F%3E%3CmxCell%20id%3D%222%22%20value%3D%22%22%20style%3D%22html%3D1%3BverticalLabelPosition%3Dbottom%3Balign%3Dcenter%3BlabelBackgroundColor%3D%23ffffff%3BverticalAlign%3Dtop%3BstrokeWidth%3D2%3BstrokeColor%3D%23666666%3Bshadow%3D0%3Bdashed%3D0%3Bshape%3Dmxgraph.ios7.icons.settings%3BfillColor%3D%23f5f5f5%3BfontColor%3D%23333333%3B%22%20vertex%3D%221%22%20parent%3D%221%22%3E%3CmxGeometry%20x%3D%22100%22%20y%3D%22216%22%20width%3D%2230%22%20height%3D%2230%22%20as%3D%22geometry%22%2F%3E%3C%2FmxCell%3E%3C%2Froot%3E%3C%2FmxGraphModel%3E&lt;/span&gt;" style="ellipse;whiteSpace=wrap;html=1;aspect=fixed;" parent="mrjyGGpw2v-9HANdxBM8-29" vertex="1">
          <mxGeometry x="4" y="4" width="12" height="12" as="geometry" />
        </mxCell>
        <mxCell id="mrjyGGpw2v-9HANdxBM8-18" value="" style="endArrow=none;html=1;rounded=0;exitX=0.5;exitY=0;exitDx=0;exitDy=0;entryX=0.5;entryY=0;entryDx=0;entryDy=0;" parent="mrjyGGpw2v-9HANdxBM8-29" source="mrjyGGpw2v-9HANdxBM8-17" target="mrjyGGpw2v-9HANdxBM8-16" edge="1">
          <mxGeometry width="50" height="50" relative="1" as="geometry">
            <mxPoint x="16" y="-16" as="sourcePoint" />
            <mxPoint x="36" y="-36" as="targetPoint" />
          </mxGeometry>
        </mxCell>
        <mxCell id="mrjyGGpw2v-9HANdxBM8-19" value="" style="endArrow=none;html=1;rounded=0;exitX=1;exitY=0;exitDx=0;exitDy=0;entryX=0.852;entryY=0.169;entryDx=0;entryDy=0;entryPerimeter=0;" parent="mrjyGGpw2v-9HANdxBM8-29" source="mrjyGGpw2v-9HANdxBM8-17" target="mrjyGGpw2v-9HANdxBM8-16" edge="1">
          <mxGeometry width="50" height="50" relative="1" as="geometry">
            <mxPoint x="14" y="8" as="sourcePoint" />
            <mxPoint x="14" y="4" as="targetPoint" />
          </mxGeometry>
        </mxCell>
        <mxCell id="mrjyGGpw2v-9HANdxBM8-20" value="" style="endArrow=none;html=1;rounded=0;exitX=1;exitY=0.5;exitDx=0;exitDy=0;entryX=1;entryY=0.5;entryDx=0;entryDy=0;" parent="mrjyGGpw2v-9HANdxBM8-29" source="mrjyGGpw2v-9HANdxBM8-17" target="mrjyGGpw2v-9HANdxBM8-16" edge="1">
          <mxGeometry width="50" height="50" relative="1" as="geometry">
            <mxPoint x="18.399999999999995" y="9.599999999999984" as="sourcePoint" />
            <mxPoint x="21.200000000000006" y="7.200000000000007" as="targetPoint" />
          </mxGeometry>
        </mxCell>
        <mxCell id="mrjyGGpw2v-9HANdxBM8-21" value="" style="endArrow=none;html=1;rounded=0;exitX=1;exitY=1;exitDx=0;exitDy=0;entryX=1;entryY=1;entryDx=0;entryDy=0;" parent="mrjyGGpw2v-9HANdxBM8-29" source="mrjyGGpw2v-9HANdxBM8-17" target="mrjyGGpw2v-9HANdxBM8-16" edge="1">
          <mxGeometry width="50" height="50" relative="1" as="geometry">
            <mxPoint x="20" y="14" as="sourcePoint" />
            <mxPoint x="24" y="14" as="targetPoint" />
          </mxGeometry>
        </mxCell>
        <mxCell id="mrjyGGpw2v-9HANdxBM8-22" value="" style="endArrow=none;html=1;rounded=0;exitX=0.5;exitY=1;exitDx=0;exitDy=0;entryX=0.5;entryY=1;entryDx=0;entryDy=0;" parent="mrjyGGpw2v-9HANdxBM8-29" source="mrjyGGpw2v-9HANdxBM8-17" target="mrjyGGpw2v-9HANdxBM8-16" edge="1">
          <mxGeometry width="50" height="50" relative="1" as="geometry">
            <mxPoint x="18.399999999999995" y="18.400000000000013" as="sourcePoint" />
            <mxPoint x="21.200000000000006" y="21.200000000000006" as="targetPoint" />
          </mxGeometry>
        </mxCell>
        <mxCell id="mrjyGGpw2v-9HANdxBM8-23" value="" style="endArrow=none;html=1;rounded=0;exitX=0;exitY=1;exitDx=0;exitDy=0;entryX=0;entryY=1;entryDx=0;entryDy=0;" parent="mrjyGGpw2v-9HANdxBM8-29" source="mrjyGGpw2v-9HANdxBM8-17" target="mrjyGGpw2v-9HANdxBM8-16" edge="1">
          <mxGeometry width="50" height="50" relative="1" as="geometry">
            <mxPoint x="14" y="20" as="sourcePoint" />
            <mxPoint x="14" y="24" as="targetPoint" />
          </mxGeometry>
        </mxCell>
        <mxCell id="mrjyGGpw2v-9HANdxBM8-24" value="" style="endArrow=none;html=1;rounded=0;exitX=0;exitY=0.5;exitDx=0;exitDy=0;entryX=0;entryY=0.5;entryDx=0;entryDy=0;" parent="mrjyGGpw2v-9HANdxBM8-29" source="mrjyGGpw2v-9HANdxBM8-17" target="mrjyGGpw2v-9HANdxBM8-16" edge="1">
          <mxGeometry width="50" height="50" relative="1" as="geometry">
            <mxPoint x="9.600000000000003" y="18.400000000000013" as="sourcePoint" />
            <mxPoint x="6.799999999999992" y="21.200000000000006" as="targetPoint" />
          </mxGeometry>
        </mxCell>
        <mxCell id="mrjyGGpw2v-9HANdxBM8-25" value="" style="endArrow=none;html=1;rounded=0;exitX=0;exitY=0;exitDx=0;exitDy=0;entryX=0;entryY=0;entryDx=0;entryDy=0;" parent="mrjyGGpw2v-9HANdxBM8-29" source="mrjyGGpw2v-9HANdxBM8-17" target="mrjyGGpw2v-9HANdxBM8-16" edge="1">
          <mxGeometry width="50" height="50" relative="1" as="geometry">
            <mxPoint x="8" y="14" as="sourcePoint" />
            <mxPoint x="4" y="14" as="targetPoint" />
          </mxGeometry>
        </mxCell>
        <mxCell id="mrjyGGpw2v-9HANdxBM8-30" value="" style="group" parent="1" vertex="1" connectable="0">
          <mxGeometry x="220" y="200" width="20" height="20" as="geometry" />
        </mxCell>
        <mxCell id="mrjyGGpw2v-9HANdxBM8-31" value="&lt;span style=&quot;color: rgba(0, 0, 0, 0); font-family: monospace; font-size: 0px; text-align: start; text-wrap: nowrap;&quot;&gt;%3CmxGraphModel%3E%3Croot%3E%3CmxCell%20id%3D%220%22%2F%3E%3CmxCell%20id%3D%221%22%20parent%3D%220%22%2F%3E%3CmxCell%20id%3D%222%22%20value%3D%22%22%20style%3D%22html%3D1%3BverticalLabelPosition%3Dbottom%3Balign%3Dcenter%3BlabelBackgroundColor%3D%23ffffff%3BverticalAlign%3Dtop%3BstrokeWidth%3D2%3BstrokeColor%3D%23666666%3Bshadow%3D0%3Bdashed%3D0%3Bshape%3Dmxgraph.ios7.icons.settings%3BfillColor%3D%23f5f5f5%3BfontColor%3D%23333333%3B%22%20vertex%3D%221%22%20parent%3D%221%22%3E%3CmxGeometry%20x%3D%22100%22%20y%3D%22216%22%20width%3D%2230%22%20height%3D%2230%22%20as%3D%22geometry%22%2F%3E%3C%2FmxCell%3E%3C%2Froot%3E%3C%2FmxGraphModel%3E&lt;/span&gt;" style="ellipse;whiteSpace=wrap;html=1;aspect=fixed;fillColor=#f5f5f5;fontColor=#333333;strokeColor=#666666;" parent="mrjyGGpw2v-9HANdxBM8-30" vertex="1">
          <mxGeometry width="20" height="20" as="geometry" />
        </mxCell>
        <mxCell id="mrjyGGpw2v-9HANdxBM8-32" value="" style="verticalLabelPosition=bottom;verticalAlign=top;html=1;shape=mxgraph.basic.half_circle;fillColor=#dae8fc;strokeColor=#6c8ebf;" parent="mrjyGGpw2v-9HANdxBM8-30" vertex="1">
          <mxGeometry y="10" width="20" height="10" as="geometry" />
        </mxCell>
        <mxCell id="mrjyGGpw2v-9HANdxBM8-33" value="&lt;span style=&quot;color: rgba(0, 0, 0, 0); font-family: monospace; font-size: 0px; text-align: start; text-wrap: nowrap;&quot;&gt;%3CmxGraphModel%3E%3Croot%3E%3CmxCell%20id%3D%220%22%2F%3E%3CmxCell%20id%3D%221%22%20parent%3D%220%22%2F%3E%3CmxCell%20id%3D%222%22%20value%3D%22%22%20style%3D%22html%3D1%3BverticalLabelPosition%3Dbottom%3Balign%3Dcenter%3BlabelBackgroundColor%3D%23ffffff%3BverticalAlign%3Dtop%3BstrokeWidth%3D2%3BstrokeColor%3D%23666666%3Bshadow%3D0%3Bdashed%3D0%3Bshape%3Dmxgraph.ios7.icons.settings%3BfillColor%3D%23f5f5f5%3BfontColor%3D%23333333%3B%22%20vertex%3D%221%22%20parent%3D%221%22%3E%3CmxGeometry%20x%3D%22100%22%20y%3D%22216%22%20width%3D%2230%22%20height%3D%2230%22%20as%3D%22geometry%22%2F%3E%3C%2FmxCell%3E%3C%2Froot%3E%3C%2FmxGraphModel%3E&lt;/span&gt;" style="ellipse;whiteSpace=wrap;html=1;aspect=fixed;" parent="mrjyGGpw2v-9HANdxBM8-30" vertex="1">
          <mxGeometry x="4" y="4" width="12" height="12" as="geometry" />
        </mxCell>
        <mxCell id="mrjyGGpw2v-9HANdxBM8-34" value="" style="endArrow=none;html=1;rounded=0;exitX=0.5;exitY=0;exitDx=0;exitDy=0;entryX=0.5;entryY=0;entryDx=0;entryDy=0;" parent="mrjyGGpw2v-9HANdxBM8-30" source="mrjyGGpw2v-9HANdxBM8-33" target="mrjyGGpw2v-9HANdxBM8-31" edge="1">
          <mxGeometry width="50" height="50" relative="1" as="geometry">
            <mxPoint x="16" y="-16" as="sourcePoint" />
            <mxPoint x="36" y="-36" as="targetPoint" />
          </mxGeometry>
        </mxCell>
        <mxCell id="mrjyGGpw2v-9HANdxBM8-35" value="" style="endArrow=none;html=1;rounded=0;exitX=1;exitY=0;exitDx=0;exitDy=0;entryX=0.852;entryY=0.169;entryDx=0;entryDy=0;entryPerimeter=0;" parent="mrjyGGpw2v-9HANdxBM8-30" source="mrjyGGpw2v-9HANdxBM8-33" target="mrjyGGpw2v-9HANdxBM8-31" edge="1">
          <mxGeometry width="50" height="50" relative="1" as="geometry">
            <mxPoint x="14" y="8" as="sourcePoint" />
            <mxPoint x="14" y="4" as="targetPoint" />
          </mxGeometry>
        </mxCell>
        <mxCell id="mrjyGGpw2v-9HANdxBM8-36" value="" style="endArrow=none;html=1;rounded=0;exitX=1;exitY=0.5;exitDx=0;exitDy=0;entryX=1;entryY=0.5;entryDx=0;entryDy=0;" parent="mrjyGGpw2v-9HANdxBM8-30" source="mrjyGGpw2v-9HANdxBM8-33" target="mrjyGGpw2v-9HANdxBM8-31" edge="1">
          <mxGeometry width="50" height="50" relative="1" as="geometry">
            <mxPoint x="18.399999999999995" y="9.599999999999984" as="sourcePoint" />
            <mxPoint x="21.200000000000006" y="7.200000000000007" as="targetPoint" />
          </mxGeometry>
        </mxCell>
        <mxCell id="mrjyGGpw2v-9HANdxBM8-37" value="" style="endArrow=none;html=1;rounded=0;exitX=1;exitY=1;exitDx=0;exitDy=0;entryX=1;entryY=1;entryDx=0;entryDy=0;" parent="mrjyGGpw2v-9HANdxBM8-30" source="mrjyGGpw2v-9HANdxBM8-33" target="mrjyGGpw2v-9HANdxBM8-31" edge="1">
          <mxGeometry width="50" height="50" relative="1" as="geometry">
            <mxPoint x="20" y="14" as="sourcePoint" />
            <mxPoint x="24" y="14" as="targetPoint" />
          </mxGeometry>
        </mxCell>
        <mxCell id="mrjyGGpw2v-9HANdxBM8-38" value="" style="endArrow=none;html=1;rounded=0;exitX=0.5;exitY=1;exitDx=0;exitDy=0;entryX=0.5;entryY=1;entryDx=0;entryDy=0;" parent="mrjyGGpw2v-9HANdxBM8-30" source="mrjyGGpw2v-9HANdxBM8-33" target="mrjyGGpw2v-9HANdxBM8-31" edge="1">
          <mxGeometry width="50" height="50" relative="1" as="geometry">
            <mxPoint x="18.399999999999995" y="18.400000000000013" as="sourcePoint" />
            <mxPoint x="21.200000000000006" y="21.200000000000006" as="targetPoint" />
          </mxGeometry>
        </mxCell>
        <mxCell id="mrjyGGpw2v-9HANdxBM8-39" value="" style="endArrow=none;html=1;rounded=0;exitX=0;exitY=1;exitDx=0;exitDy=0;entryX=0;entryY=1;entryDx=0;entryDy=0;" parent="mrjyGGpw2v-9HANdxBM8-30" source="mrjyGGpw2v-9HANdxBM8-33" target="mrjyGGpw2v-9HANdxBM8-31" edge="1">
          <mxGeometry width="50" height="50" relative="1" as="geometry">
            <mxPoint x="14" y="20" as="sourcePoint" />
            <mxPoint x="14" y="24" as="targetPoint" />
          </mxGeometry>
        </mxCell>
        <mxCell id="mrjyGGpw2v-9HANdxBM8-40" value="" style="endArrow=none;html=1;rounded=0;exitX=0;exitY=0.5;exitDx=0;exitDy=0;entryX=0;entryY=0.5;entryDx=0;entryDy=0;" parent="mrjyGGpw2v-9HANdxBM8-30" source="mrjyGGpw2v-9HANdxBM8-33" target="mrjyGGpw2v-9HANdxBM8-31" edge="1">
          <mxGeometry width="50" height="50" relative="1" as="geometry">
            <mxPoint x="9.600000000000003" y="18.400000000000013" as="sourcePoint" />
            <mxPoint x="6.799999999999992" y="21.200000000000006" as="targetPoint" />
          </mxGeometry>
        </mxCell>
        <mxCell id="mrjyGGpw2v-9HANdxBM8-41" value="" style="endArrow=none;html=1;rounded=0;exitX=0;exitY=0;exitDx=0;exitDy=0;entryX=0;entryY=0;entryDx=0;entryDy=0;" parent="mrjyGGpw2v-9HANdxBM8-30" source="mrjyGGpw2v-9HANdxBM8-33" target="mrjyGGpw2v-9HANdxBM8-31" edge="1">
          <mxGeometry width="50" height="50" relative="1" as="geometry">
            <mxPoint x="8" y="14" as="sourcePoint" />
            <mxPoint x="4" y="14" as="targetPoint" />
          </mxGeometry>
        </mxCell>
        <mxCell id="mrjyGGpw2v-9HANdxBM8-42" value="" style="group" parent="1" vertex="1" connectable="0">
          <mxGeometry x="220" y="225" width="20" height="20" as="geometry" />
        </mxCell>
        <mxCell id="mrjyGGpw2v-9HANdxBM8-43" value="&lt;span style=&quot;color: rgba(0, 0, 0, 0); font-family: monospace; font-size: 0px; text-align: start; text-wrap: nowrap;&quot;&gt;%3CmxGraphModel%3E%3Croot%3E%3CmxCell%20id%3D%220%22%2F%3E%3CmxCell%20id%3D%221%22%20parent%3D%220%22%2F%3E%3CmxCell%20id%3D%222%22%20value%3D%22%22%20style%3D%22html%3D1%3BverticalLabelPosition%3Dbottom%3Balign%3Dcenter%3BlabelBackgroundColor%3D%23ffffff%3BverticalAlign%3Dtop%3BstrokeWidth%3D2%3BstrokeColor%3D%23666666%3Bshadow%3D0%3Bdashed%3D0%3Bshape%3Dmxgraph.ios7.icons.settings%3BfillColor%3D%23f5f5f5%3BfontColor%3D%23333333%3B%22%20vertex%3D%221%22%20parent%3D%221%22%3E%3CmxGeometry%20x%3D%22100%22%20y%3D%22216%22%20width%3D%2230%22%20height%3D%2230%22%20as%3D%22geometry%22%2F%3E%3C%2FmxCell%3E%3C%2Froot%3E%3C%2FmxGraphModel%3E&lt;/span&gt;" style="ellipse;whiteSpace=wrap;html=1;aspect=fixed;fillColor=#f5f5f5;fontColor=#333333;strokeColor=#666666;" parent="mrjyGGpw2v-9HANdxBM8-42" vertex="1">
          <mxGeometry width="20" height="20" as="geometry" />
        </mxCell>
        <mxCell id="mrjyGGpw2v-9HANdxBM8-44" value="" style="verticalLabelPosition=bottom;verticalAlign=top;html=1;shape=mxgraph.basic.half_circle;fillColor=#dae8fc;strokeColor=#6c8ebf;" parent="mrjyGGpw2v-9HANdxBM8-42" vertex="1">
          <mxGeometry y="10" width="20" height="10" as="geometry" />
        </mxCell>
        <mxCell id="mrjyGGpw2v-9HANdxBM8-45" value="&lt;span style=&quot;color: rgba(0, 0, 0, 0); font-family: monospace; font-size: 0px; text-align: start; text-wrap: nowrap;&quot;&gt;%3CmxGraphModel%3E%3Croot%3E%3CmxCell%20id%3D%220%22%2F%3E%3CmxCell%20id%3D%221%22%20parent%3D%220%22%2F%3E%3CmxCell%20id%3D%222%22%20value%3D%22%22%20style%3D%22html%3D1%3BverticalLabelPosition%3Dbottom%3Balign%3Dcenter%3BlabelBackgroundColor%3D%23ffffff%3BverticalAlign%3Dtop%3BstrokeWidth%3D2%3BstrokeColor%3D%23666666%3Bshadow%3D0%3Bdashed%3D0%3Bshape%3Dmxgraph.ios7.icons.settings%3BfillColor%3D%23f5f5f5%3BfontColor%3D%23333333%3B%22%20vertex%3D%221%22%20parent%3D%221%22%3E%3CmxGeometry%20x%3D%22100%22%20y%3D%22216%22%20width%3D%2230%22%20height%3D%2230%22%20as%3D%22geometry%22%2F%3E%3C%2FmxCell%3E%3C%2Froot%3E%3C%2FmxGraphModel%3E&lt;/span&gt;" style="ellipse;whiteSpace=wrap;html=1;aspect=fixed;" parent="mrjyGGpw2v-9HANdxBM8-42" vertex="1">
          <mxGeometry x="4" y="4" width="12" height="12" as="geometry" />
        </mxCell>
        <mxCell id="mrjyGGpw2v-9HANdxBM8-46" value="" style="endArrow=none;html=1;rounded=0;exitX=0.5;exitY=0;exitDx=0;exitDy=0;entryX=0.5;entryY=0;entryDx=0;entryDy=0;" parent="mrjyGGpw2v-9HANdxBM8-42" source="mrjyGGpw2v-9HANdxBM8-45" target="mrjyGGpw2v-9HANdxBM8-43" edge="1">
          <mxGeometry width="50" height="50" relative="1" as="geometry">
            <mxPoint x="16" y="-16" as="sourcePoint" />
            <mxPoint x="36" y="-36" as="targetPoint" />
          </mxGeometry>
        </mxCell>
        <mxCell id="mrjyGGpw2v-9HANdxBM8-47" value="" style="endArrow=none;html=1;rounded=0;exitX=1;exitY=0;exitDx=0;exitDy=0;entryX=0.852;entryY=0.169;entryDx=0;entryDy=0;entryPerimeter=0;" parent="mrjyGGpw2v-9HANdxBM8-42" source="mrjyGGpw2v-9HANdxBM8-45" target="mrjyGGpw2v-9HANdxBM8-43" edge="1">
          <mxGeometry width="50" height="50" relative="1" as="geometry">
            <mxPoint x="14" y="8" as="sourcePoint" />
            <mxPoint x="14" y="4" as="targetPoint" />
          </mxGeometry>
        </mxCell>
        <mxCell id="mrjyGGpw2v-9HANdxBM8-48" value="" style="endArrow=none;html=1;rounded=0;exitX=1;exitY=0.5;exitDx=0;exitDy=0;entryX=1;entryY=0.5;entryDx=0;entryDy=0;" parent="mrjyGGpw2v-9HANdxBM8-42" source="mrjyGGpw2v-9HANdxBM8-45" target="mrjyGGpw2v-9HANdxBM8-43" edge="1">
          <mxGeometry width="50" height="50" relative="1" as="geometry">
            <mxPoint x="18.399999999999995" y="9.599999999999984" as="sourcePoint" />
            <mxPoint x="21.200000000000006" y="7.200000000000007" as="targetPoint" />
          </mxGeometry>
        </mxCell>
        <mxCell id="mrjyGGpw2v-9HANdxBM8-49" value="" style="endArrow=none;html=1;rounded=0;exitX=1;exitY=1;exitDx=0;exitDy=0;entryX=1;entryY=1;entryDx=0;entryDy=0;" parent="mrjyGGpw2v-9HANdxBM8-42" source="mrjyGGpw2v-9HANdxBM8-45" target="mrjyGGpw2v-9HANdxBM8-43" edge="1">
          <mxGeometry width="50" height="50" relative="1" as="geometry">
            <mxPoint x="20" y="14" as="sourcePoint" />
            <mxPoint x="24" y="14" as="targetPoint" />
          </mxGeometry>
        </mxCell>
        <mxCell id="mrjyGGpw2v-9HANdxBM8-50" value="" style="endArrow=none;html=1;rounded=0;exitX=0.5;exitY=1;exitDx=0;exitDy=0;entryX=0.5;entryY=1;entryDx=0;entryDy=0;" parent="mrjyGGpw2v-9HANdxBM8-42" source="mrjyGGpw2v-9HANdxBM8-45" target="mrjyGGpw2v-9HANdxBM8-43" edge="1">
          <mxGeometry width="50" height="50" relative="1" as="geometry">
            <mxPoint x="18.399999999999995" y="18.400000000000013" as="sourcePoint" />
            <mxPoint x="21.200000000000006" y="21.200000000000006" as="targetPoint" />
          </mxGeometry>
        </mxCell>
        <mxCell id="mrjyGGpw2v-9HANdxBM8-51" value="" style="endArrow=none;html=1;rounded=0;exitX=0;exitY=1;exitDx=0;exitDy=0;entryX=0;entryY=1;entryDx=0;entryDy=0;" parent="mrjyGGpw2v-9HANdxBM8-42" source="mrjyGGpw2v-9HANdxBM8-45" target="mrjyGGpw2v-9HANdxBM8-43" edge="1">
          <mxGeometry width="50" height="50" relative="1" as="geometry">
            <mxPoint x="14" y="20" as="sourcePoint" />
            <mxPoint x="14" y="24" as="targetPoint" />
          </mxGeometry>
        </mxCell>
        <mxCell id="mrjyGGpw2v-9HANdxBM8-52" value="" style="endArrow=none;html=1;rounded=0;exitX=0;exitY=0.5;exitDx=0;exitDy=0;entryX=0;entryY=0.5;entryDx=0;entryDy=0;" parent="mrjyGGpw2v-9HANdxBM8-42" source="mrjyGGpw2v-9HANdxBM8-45" target="mrjyGGpw2v-9HANdxBM8-43" edge="1">
          <mxGeometry width="50" height="50" relative="1" as="geometry">
            <mxPoint x="9.600000000000003" y="18.400000000000013" as="sourcePoint" />
            <mxPoint x="6.799999999999992" y="21.200000000000006" as="targetPoint" />
          </mxGeometry>
        </mxCell>
        <mxCell id="mrjyGGpw2v-9HANdxBM8-53" value="" style="endArrow=none;html=1;rounded=0;exitX=0;exitY=0;exitDx=0;exitDy=0;entryX=0;entryY=0;entryDx=0;entryDy=0;" parent="mrjyGGpw2v-9HANdxBM8-42" source="mrjyGGpw2v-9HANdxBM8-45" target="mrjyGGpw2v-9HANdxBM8-43" edge="1">
          <mxGeometry width="50" height="50" relative="1" as="geometry">
            <mxPoint x="8" y="14" as="sourcePoint" />
            <mxPoint x="4" y="14" as="targetPoint" />
          </mxGeometry>
        </mxCell>
        <mxCell id="mrjyGGpw2v-9HANdxBM8-54" value="" style="group" parent="1" vertex="1" connectable="0">
          <mxGeometry x="220" y="260" width="20" height="20" as="geometry" />
        </mxCell>
        <mxCell id="mrjyGGpw2v-9HANdxBM8-55" value="&lt;span style=&quot;color: rgba(0, 0, 0, 0); font-family: monospace; font-size: 0px; text-align: start; text-wrap: nowrap;&quot;&gt;%3CmxGraphModel%3E%3Croot%3E%3CmxCell%20id%3D%220%22%2F%3E%3CmxCell%20id%3D%221%22%20parent%3D%220%22%2F%3E%3CmxCell%20id%3D%222%22%20value%3D%22%22%20style%3D%22html%3D1%3BverticalLabelPosition%3Dbottom%3Balign%3Dcenter%3BlabelBackgroundColor%3D%23ffffff%3BverticalAlign%3Dtop%3BstrokeWidth%3D2%3BstrokeColor%3D%23666666%3Bshadow%3D0%3Bdashed%3D0%3Bshape%3Dmxgraph.ios7.icons.settings%3BfillColor%3D%23f5f5f5%3BfontColor%3D%23333333%3B%22%20vertex%3D%221%22%20parent%3D%221%22%3E%3CmxGeometry%20x%3D%22100%22%20y%3D%22216%22%20width%3D%2230%22%20height%3D%2230%22%20as%3D%22geometry%22%2F%3E%3C%2FmxCell%3E%3C%2Froot%3E%3C%2FmxGraphModel%3E&lt;/span&gt;" style="ellipse;whiteSpace=wrap;html=1;aspect=fixed;fillColor=#f5f5f5;fontColor=#333333;strokeColor=#666666;" parent="mrjyGGpw2v-9HANdxBM8-54" vertex="1">
          <mxGeometry width="20" height="20" as="geometry" />
        </mxCell>
        <mxCell id="mrjyGGpw2v-9HANdxBM8-56" value="" style="verticalLabelPosition=bottom;verticalAlign=top;html=1;shape=mxgraph.basic.half_circle;fillColor=#dae8fc;strokeColor=#6c8ebf;" parent="mrjyGGpw2v-9HANdxBM8-54" vertex="1">
          <mxGeometry y="10" width="20" height="10" as="geometry" />
        </mxCell>
        <mxCell id="mrjyGGpw2v-9HANdxBM8-57" value="&lt;span style=&quot;color: rgba(0, 0, 0, 0); font-family: monospace; font-size: 0px; text-align: start; text-wrap: nowrap;&quot;&gt;%3CmxGraphModel%3E%3Croot%3E%3CmxCell%20id%3D%220%22%2F%3E%3CmxCell%20id%3D%221%22%20parent%3D%220%22%2F%3E%3CmxCell%20id%3D%222%22%20value%3D%22%22%20style%3D%22html%3D1%3BverticalLabelPosition%3Dbottom%3Balign%3Dcenter%3BlabelBackgroundColor%3D%23ffffff%3BverticalAlign%3Dtop%3BstrokeWidth%3D2%3BstrokeColor%3D%23666666%3Bshadow%3D0%3Bdashed%3D0%3Bshape%3Dmxgraph.ios7.icons.settings%3BfillColor%3D%23f5f5f5%3BfontColor%3D%23333333%3B%22%20vertex%3D%221%22%20parent%3D%221%22%3E%3CmxGeometry%20x%3D%22100%22%20y%3D%22216%22%20width%3D%2230%22%20height%3D%2230%22%20as%3D%22geometry%22%2F%3E%3C%2FmxCell%3E%3C%2Froot%3E%3C%2FmxGraphModel%3E&lt;/span&gt;" style="ellipse;whiteSpace=wrap;html=1;aspect=fixed;" parent="mrjyGGpw2v-9HANdxBM8-54" vertex="1">
          <mxGeometry x="4" y="4" width="12" height="12" as="geometry" />
        </mxCell>
        <mxCell id="mrjyGGpw2v-9HANdxBM8-58" value="" style="endArrow=none;html=1;rounded=0;exitX=0.5;exitY=0;exitDx=0;exitDy=0;entryX=0.5;entryY=0;entryDx=0;entryDy=0;" parent="mrjyGGpw2v-9HANdxBM8-54" source="mrjyGGpw2v-9HANdxBM8-57" target="mrjyGGpw2v-9HANdxBM8-55" edge="1">
          <mxGeometry width="50" height="50" relative="1" as="geometry">
            <mxPoint x="16" y="-16" as="sourcePoint" />
            <mxPoint x="36" y="-36" as="targetPoint" />
          </mxGeometry>
        </mxCell>
        <mxCell id="mrjyGGpw2v-9HANdxBM8-59" value="" style="endArrow=none;html=1;rounded=0;exitX=1;exitY=0;exitDx=0;exitDy=0;entryX=0.852;entryY=0.169;entryDx=0;entryDy=0;entryPerimeter=0;" parent="mrjyGGpw2v-9HANdxBM8-54" source="mrjyGGpw2v-9HANdxBM8-57" target="mrjyGGpw2v-9HANdxBM8-55" edge="1">
          <mxGeometry width="50" height="50" relative="1" as="geometry">
            <mxPoint x="14" y="8" as="sourcePoint" />
            <mxPoint x="14" y="4" as="targetPoint" />
          </mxGeometry>
        </mxCell>
        <mxCell id="mrjyGGpw2v-9HANdxBM8-60" value="" style="endArrow=none;html=1;rounded=0;exitX=1;exitY=0.5;exitDx=0;exitDy=0;entryX=1;entryY=0.5;entryDx=0;entryDy=0;" parent="mrjyGGpw2v-9HANdxBM8-54" source="mrjyGGpw2v-9HANdxBM8-57" target="mrjyGGpw2v-9HANdxBM8-55" edge="1">
          <mxGeometry width="50" height="50" relative="1" as="geometry">
            <mxPoint x="18.399999999999995" y="9.599999999999984" as="sourcePoint" />
            <mxPoint x="21.200000000000006" y="7.200000000000007" as="targetPoint" />
          </mxGeometry>
        </mxCell>
        <mxCell id="mrjyGGpw2v-9HANdxBM8-61" value="" style="endArrow=none;html=1;rounded=0;exitX=1;exitY=1;exitDx=0;exitDy=0;entryX=1;entryY=1;entryDx=0;entryDy=0;" parent="mrjyGGpw2v-9HANdxBM8-54" source="mrjyGGpw2v-9HANdxBM8-57" target="mrjyGGpw2v-9HANdxBM8-55" edge="1">
          <mxGeometry width="50" height="50" relative="1" as="geometry">
            <mxPoint x="20" y="14" as="sourcePoint" />
            <mxPoint x="24" y="14" as="targetPoint" />
          </mxGeometry>
        </mxCell>
        <mxCell id="mrjyGGpw2v-9HANdxBM8-62" value="" style="endArrow=none;html=1;rounded=0;exitX=0.5;exitY=1;exitDx=0;exitDy=0;entryX=0.5;entryY=1;entryDx=0;entryDy=0;" parent="mrjyGGpw2v-9HANdxBM8-54" source="mrjyGGpw2v-9HANdxBM8-57" target="mrjyGGpw2v-9HANdxBM8-55" edge="1">
          <mxGeometry width="50" height="50" relative="1" as="geometry">
            <mxPoint x="18.399999999999995" y="18.400000000000013" as="sourcePoint" />
            <mxPoint x="21.200000000000006" y="21.200000000000006" as="targetPoint" />
          </mxGeometry>
        </mxCell>
        <mxCell id="mrjyGGpw2v-9HANdxBM8-63" value="" style="endArrow=none;html=1;rounded=0;exitX=0;exitY=1;exitDx=0;exitDy=0;entryX=0;entryY=1;entryDx=0;entryDy=0;" parent="mrjyGGpw2v-9HANdxBM8-54" source="mrjyGGpw2v-9HANdxBM8-57" target="mrjyGGpw2v-9HANdxBM8-55" edge="1">
          <mxGeometry width="50" height="50" relative="1" as="geometry">
            <mxPoint x="14" y="20" as="sourcePoint" />
            <mxPoint x="14" y="24" as="targetPoint" />
          </mxGeometry>
        </mxCell>
        <mxCell id="mrjyGGpw2v-9HANdxBM8-64" value="" style="endArrow=none;html=1;rounded=0;exitX=0;exitY=0.5;exitDx=0;exitDy=0;entryX=0;entryY=0.5;entryDx=0;entryDy=0;" parent="mrjyGGpw2v-9HANdxBM8-54" source="mrjyGGpw2v-9HANdxBM8-57" target="mrjyGGpw2v-9HANdxBM8-55" edge="1">
          <mxGeometry width="50" height="50" relative="1" as="geometry">
            <mxPoint x="9.600000000000003" y="18.400000000000013" as="sourcePoint" />
            <mxPoint x="6.799999999999992" y="21.200000000000006" as="targetPoint" />
          </mxGeometry>
        </mxCell>
        <mxCell id="mrjyGGpw2v-9HANdxBM8-65" value="" style="endArrow=none;html=1;rounded=0;exitX=0;exitY=0;exitDx=0;exitDy=0;entryX=0;entryY=0;entryDx=0;entryDy=0;" parent="mrjyGGpw2v-9HANdxBM8-54" source="mrjyGGpw2v-9HANdxBM8-57" target="mrjyGGpw2v-9HANdxBM8-55" edge="1">
          <mxGeometry width="50" height="50" relative="1" as="geometry">
            <mxPoint x="8" y="14" as="sourcePoint" />
            <mxPoint x="4" y="14" as="targetPoint" />
          </mxGeometry>
        </mxCell>
        <mxCell id="mrjyGGpw2v-9HANdxBM8-66" value="XDP" style="rounded=0;whiteSpace=wrap;html=1;fillColor=#f5f5f5;fontColor=#333333;strokeColor=#666666;" parent="1" vertex="1">
          <mxGeometry x="73.75" y="150" width="86.25" height="20" as="geometry" />
        </mxCell>
        <mxCell id="mrjyGGpw2v-9HANdxBM8-68" value="tcp_probe" style="rounded=0;whiteSpace=wrap;html=1;fillColor=#f5f5f5;fontColor=#333333;strokeColor=#666666;" parent="1" vertex="1">
          <mxGeometry x="73.75" y="200" width="86.25" height="20" as="geometry" />
        </mxCell>
        <mxCell id="mrjyGGpw2v-9HANdxBM8-69" value="tcp_bad_csum" style="rounded=0;whiteSpace=wrap;html=1;fillColor=#f5f5f5;fontColor=#333333;strokeColor=#666666;" parent="1" vertex="1">
          <mxGeometry x="73.75" y="225" width="86.25" height="20" as="geometry" />
        </mxCell>
        <mxCell id="mrjyGGpw2v-9HANdxBM8-71" value="tcp_bad_csum" style="rounded=0;whiteSpace=wrap;html=1;fillColor=#f5f5f5;fontColor=#333333;strokeColor=#666666;" parent="1" vertex="1">
          <mxGeometry x="73.75" y="260" width="86.25" height="20" as="geometry" />
        </mxCell>
        <mxCell id="mrjyGGpw2v-9HANdxBM8-72" value="..." style="text;html=1;align=center;verticalAlign=middle;resizable=0;points=[];autosize=1;strokeColor=none;fillColor=none;fontStyle=1;fontSize=20;" parent="1" vertex="1">
          <mxGeometry x="96.88" y="225" width="40" height="40" as="geometry" />
        </mxCell>
        <mxCell id="mrjyGGpw2v-9HANdxBM8-74" value="" style="sketch=0;aspect=fixed;pointerEvents=1;shadow=0;dashed=0;html=1;strokeColor=#666666;labelPosition=center;verticalLabelPosition=bottom;verticalAlign=top;align=center;fillColor=#f5f5f5;shape=mxgraph.mscae.enterprise.filter;fontColor=#333333;" parent="1" vertex="1">
          <mxGeometry x="180" y="150" width="22.22" height="20" as="geometry" />
        </mxCell>
        <mxCell id="mrjyGGpw2v-9HANdxBM8-75" value="" style="sketch=0;aspect=fixed;pointerEvents=1;shadow=0;dashed=0;html=1;strokeColor=#666666;labelPosition=center;verticalLabelPosition=bottom;verticalAlign=top;align=center;fillColor=#f5f5f5;shape=mxgraph.mscae.enterprise.filter;fontColor=#333333;" parent="1" vertex="1">
          <mxGeometry x="180" y="200" width="22.22" height="20" as="geometry" />
        </mxCell>
        <mxCell id="mrjyGGpw2v-9HANdxBM8-76" value="" style="sketch=0;aspect=fixed;pointerEvents=1;shadow=0;dashed=0;html=1;strokeColor=#666666;labelPosition=center;verticalLabelPosition=bottom;verticalAlign=top;align=center;fillColor=#f5f5f5;shape=mxgraph.mscae.enterprise.filter;fontColor=#333333;" parent="1" vertex="1">
          <mxGeometry x="180" y="225" width="22.22" height="20" as="geometry" />
        </mxCell>
        <mxCell id="mrjyGGpw2v-9HANdxBM8-77" value="" style="sketch=0;aspect=fixed;pointerEvents=1;shadow=0;dashed=0;html=1;strokeColor=#666666;labelPosition=center;verticalLabelPosition=bottom;verticalAlign=top;align=center;fillColor=#f5f5f5;shape=mxgraph.mscae.enterprise.filter;fontColor=#333333;" parent="1" vertex="1">
          <mxGeometry x="180" y="260" width="22.22" height="20" as="geometry" />
        </mxCell>
        <mxCell id="mrjyGGpw2v-9HANdxBM8-78" value="Stream&lt;div&gt;Filter&lt;/div&gt;" style="text;html=1;align=center;verticalAlign=middle;resizable=0;points=[];autosize=1;strokeColor=none;fillColor=none;" parent="1" vertex="1">
          <mxGeometry x="161.11" y="280" width="60" height="40" as="geometry" />
        </mxCell>
        <mxCell id="mrjyGGpw2v-9HANdxBM8-81" value="XDP Handler" style="rounded=0;whiteSpace=wrap;html=1;fillColor=#f5f5f5;fontColor=#333333;strokeColor=#666666;" parent="1" vertex="1">
          <mxGeometry x="301.87" y="150" width="86.25" height="20" as="geometry" />
        </mxCell>
        <mxCell id="mrjyGGpw2v-9HANdxBM8-82" value="XDP Handler" style="rounded=0;whiteSpace=wrap;html=1;fillColor=#f5f5f5;fontColor=#333333;strokeColor=#666666;" parent="1" vertex="1">
          <mxGeometry x="301.87" y="200" width="86.25" height="20" as="geometry" />
        </mxCell>
        <mxCell id="mrjyGGpw2v-9HANdxBM8-83" value="XDP Handler" style="rounded=0;whiteSpace=wrap;html=1;fillColor=#f5f5f5;fontColor=#333333;strokeColor=#666666;" parent="1" vertex="1">
          <mxGeometry x="301.87" y="225" width="86.25" height="20" as="geometry" />
        </mxCell>
        <mxCell id="mrjyGGpw2v-9HANdxBM8-84" value="XDP Handler" style="rounded=0;whiteSpace=wrap;html=1;fillColor=#f5f5f5;fontColor=#333333;strokeColor=#666666;" parent="1" vertex="1">
          <mxGeometry x="301.87" y="260" width="86.25" height="20" as="geometry" />
        </mxCell>
        <mxCell id="mrjyGGpw2v-9HANdxBM8-85" value="" style="rounded=1;whiteSpace=wrap;html=1;" parent="1" vertex="1">
          <mxGeometry x="470" y="130" width="60" height="160" as="geometry" />
        </mxCell>
        <mxCell id="mrjyGGpw2v-9HANdxBM8-86" value="Database" style="text;html=1;align=center;verticalAlign=middle;resizable=0;points=[];autosize=1;strokeColor=none;fillColor=none;" parent="1" vertex="1">
          <mxGeometry x="465" y="100" width="70" height="30" as="geometry" />
        </mxCell>
        <mxCell id="mrjyGGpw2v-9HANdxBM8-88" value="" style="rounded=1;whiteSpace=wrap;html=1;" parent="1" vertex="1">
          <mxGeometry x="56.879999999999995" y="450" width="93.12" height="100" as="geometry" />
        </mxCell>
        <mxCell id="mrjyGGpw2v-9HANdxBM8-89" value="" style="rounded=1;whiteSpace=wrap;html=1;" parent="1" vertex="1">
          <mxGeometry x="208.75" y="450" width="93.12" height="100" as="geometry" />
        </mxCell>
        <mxCell id="mrjyGGpw2v-9HANdxBM8-90" value="" style="rounded=1;whiteSpace=wrap;html=1;" parent="1" vertex="1">
          <mxGeometry x="360" y="450" width="93.12" height="100" as="geometry" />
        </mxCell>
        <mxCell id="mrjyGGpw2v-9HANdxBM8-91" value="Record" style="text;html=1;align=center;verticalAlign=middle;resizable=0;points=[];autosize=1;strokeColor=none;fillColor=none;" parent="1" vertex="1">
          <mxGeometry x="73.44" y="420" width="60" height="30" as="geometry" />
        </mxCell>
        <mxCell id="mrjyGGpw2v-9HANdxBM8-92" value="Process" style="text;html=1;align=center;verticalAlign=middle;resizable=0;points=[];autosize=1;strokeColor=none;fillColor=none;" parent="1" vertex="1">
          <mxGeometry x="213.78" y="420" width="70" height="30" as="geometry" />
        </mxCell>
        <mxCell id="mrjyGGpw2v-9HANdxBM8-93" value="Visualize" style="text;html=1;align=center;verticalAlign=middle;resizable=0;points=[];autosize=1;strokeColor=none;fillColor=none;" parent="1" vertex="1">
          <mxGeometry x="329.78" y="420" width="70" height="30" as="geometry" />
        </mxCell>
        <mxCell id="mrjyGGpw2v-9HANdxBM8-94" value="" style="shape=flexArrow;endArrow=classic;html=1;rounded=0;endWidth=36;endSize=5.11;width=44;fillColor=#f5f5f5;strokeColor=#666666;" parent="1" edge="1">
          <mxGeometry width="50" height="50" relative="1" as="geometry">
            <mxPoint x="152.22" y="499.83" as="sourcePoint" />
            <mxPoint x="202.22" y="499.83" as="targetPoint" />
            <Array as="points">
              <mxPoint x="172.22" y="499.83" />
            </Array>
          </mxGeometry>
        </mxCell>
        <mxCell id="mrjyGGpw2v-9HANdxBM8-95" value="" style="shape=flexArrow;endArrow=classic;html=1;rounded=0;endWidth=36;endSize=5.11;width=44;fillColor=#f5f5f5;strokeColor=#666666;" parent="1" edge="1">
          <mxGeometry width="50" height="50" relative="1" as="geometry">
            <mxPoint x="305" y="499.71" as="sourcePoint" />
            <mxPoint x="355" y="499.71" as="targetPoint" />
            <Array as="points">
              <mxPoint x="325" y="499.71" />
            </Array>
          </mxGeometry>
        </mxCell>
        <mxCell id="mrjyGGpw2v-9HANdxBM8-96" value="" style="rounded=1;whiteSpace=wrap;html=1;" parent="1" vertex="1">
          <mxGeometry x="20" y="660" width="93.12" height="100" as="geometry" />
        </mxCell>
        <mxCell id="mrjyGGpw2v-9HANdxBM8-98" value="" style="rounded=1;whiteSpace=wrap;html=1;" parent="1" vertex="1">
          <mxGeometry x="365.78" y="658" width="93.12" height="100" as="geometry" />
        </mxCell>
        <mxCell id="mrjyGGpw2v-9HANdxBM8-99" value="Record" style="text;html=1;align=center;verticalAlign=middle;resizable=0;points=[];autosize=1;strokeColor=none;fillColor=none;" parent="1" vertex="1">
          <mxGeometry x="40" y="630" width="60" height="30" as="geometry" />
        </mxCell>
        <mxCell id="mrjyGGpw2v-9HANdxBM8-101" value="Visualize" style="text;html=1;align=center;verticalAlign=middle;resizable=0;points=[];autosize=1;strokeColor=none;fillColor=none;" parent="1" vertex="1">
          <mxGeometry x="381.55999999999995" y="628" width="70" height="30" as="geometry" />
        </mxCell>
        <mxCell id="mrjyGGpw2v-9HANdxBM8-104" value="" style="html=1;verticalLabelPosition=bottom;align=center;labelBackgroundColor=#ffffff;verticalAlign=top;strokeWidth=2;strokeColor=#666666;shadow=0;dashed=0;shape=mxgraph.ios7.icons.data;fillColor=#f5f5f5;fontColor=#333333;" parent="1" vertex="1">
          <mxGeometry x="213.78" y="675" width="60" height="70" as="geometry" />
        </mxCell>
        <mxCell id="mrjyGGpw2v-9HANdxBM8-106" value="" style="endArrow=classic;html=1;rounded=0;exitX=0.992;exitY=0.276;exitDx=0;exitDy=0;exitPerimeter=0;entryX=-0.018;entryY=0.276;entryDx=0;entryDy=0;entryPerimeter=0;curved=1;" parent="1" source="mrjyGGpw2v-9HANdxBM8-104" target="mrjyGGpw2v-9HANdxBM8-104" edge="1">
          <mxGeometry width="50" height="50" relative="1" as="geometry">
            <mxPoint x="276" y="752" as="sourcePoint" />
            <mxPoint x="232" y="752" as="targetPoint" />
            <Array as="points">
              <mxPoint x="290" y="694" />
              <mxPoint x="290" y="650" />
              <mxPoint x="190" y="650" />
              <mxPoint x="190" y="690" />
            </Array>
          </mxGeometry>
        </mxCell>
        <mxCell id="mrjyGGpw2v-9HANdxBM8-107" value="" style="endArrow=classic;html=1;rounded=0;exitX=1;exitY=0.5;exitDx=0;exitDy=0;entryX=-0.018;entryY=0.496;entryDx=0;entryDy=0;entryPerimeter=0;" parent="1" source="mrjyGGpw2v-9HANdxBM8-96" target="mrjyGGpw2v-9HANdxBM8-104" edge="1">
          <mxGeometry width="50" height="50" relative="1" as="geometry">
            <mxPoint x="220" y="760" as="sourcePoint" />
            <mxPoint x="270" y="710" as="targetPoint" />
          </mxGeometry>
        </mxCell>
        <mxCell id="mrjyGGpw2v-9HANdxBM8-108" value="" style="endArrow=classic;html=1;rounded=0;exitX=0.998;exitY=0.486;exitDx=0;exitDy=0;exitPerimeter=0;entryX=0;entryY=0.5;entryDx=0;entryDy=0;" parent="1" source="mrjyGGpw2v-9HANdxBM8-104" target="mrjyGGpw2v-9HANdxBM8-98" edge="1">
          <mxGeometry width="50" height="50" relative="1" as="geometry">
            <mxPoint x="163" y="720" as="sourcePoint" />
            <mxPoint x="320" y="712" as="targetPoint" />
          </mxGeometry>
        </mxCell>
        <mxCell id="mrjyGGpw2v-9HANdxBM8-109" value="Process" style="text;html=1;align=center;verticalAlign=middle;resizable=0;points=[];autosize=1;strokeColor=none;fillColor=none;" parent="1" vertex="1">
          <mxGeometry x="216.42000000000002" y="600" width="70" height="30" as="geometry" />
        </mxCell>
        <mxCell id="mrjyGGpw2v-9HANdxBM8-110" value="1" style="ellipse;whiteSpace=wrap;html=1;aspect=fixed;fillColor=#000000;fontStyle=1;fontColor=#FFFFFF;" parent="1" vertex="1">
          <mxGeometry x="33.44" y="637.5" width="15" height="15" as="geometry" />
        </mxCell>
        <mxCell id="mrjyGGpw2v-9HANdxBM8-111" value="2" style="ellipse;whiteSpace=wrap;html=1;aspect=fixed;fillColor=#000000;fontStyle=1;fontColor=#FFFFFF;" parent="1" vertex="1">
          <mxGeometry x="208.75000000000003" y="607.5" width="15" height="15" as="geometry" />
        </mxCell>
        <mxCell id="mrjyGGpw2v-9HANdxBM8-112" value="3" style="ellipse;whiteSpace=wrap;html=1;aspect=fixed;fillColor=#000000;fontStyle=1;fontColor=#FFFFFF;" parent="1" vertex="1">
          <mxGeometry x="373.12" y="635.5" width="15" height="15" as="geometry" />
        </mxCell>
        <mxCell id="mrjyGGpw2v-9HANdxBM8-113" value="detect_dup_acks" style="rounded=1;whiteSpace=wrap;html=1;" parent="1" vertex="1">
          <mxGeometry x="188.78" y="640" width="110" height="20" as="geometry" />
        </mxCell>
        <mxCell id="mrjyGGpw2v-9HANdxBM8-118" value="XDP" style="rounded=1;whiteSpace=wrap;html=1;" parent="1" vertex="1">
          <mxGeometry x="38.120000000000005" y="683" width="70" height="20" as="geometry" />
        </mxCell>
        <mxCell id="mrjyGGpw2v-9HANdxBM8-117" value="" style="sketch=0;html=1;aspect=fixed;strokeColor=#666666;shadow=0;fillColor=#f5f5f5;verticalAlign=top;labelPosition=center;verticalLabelPosition=bottom;shape=mxgraph.gcp2.gear;fontColor=#333333;" parent="1" vertex="1">
          <mxGeometry x="24" y="666" width="30" height="30" as="geometry" />
        </mxCell>
        <mxCell id="mrjyGGpw2v-9HANdxBM8-119" value="Kernel Tracepoints" style="rounded=1;whiteSpace=wrap;html=1;" parent="1" vertex="1">
          <mxGeometry x="38.120000000000005" y="716" width="70" height="29" as="geometry" />
        </mxCell>
        <mxCell id="mrjyGGpw2v-9HANdxBM8-120" value="" style="sketch=0;html=1;aspect=fixed;strokeColor=#666666;shadow=0;fillColor=#f5f5f5;verticalAlign=top;labelPosition=center;verticalLabelPosition=bottom;shape=mxgraph.gcp2.gear;fontColor=#333333;" parent="1" vertex="1">
          <mxGeometry x="24" y="703" width="30" height="30" as="geometry" />
        </mxCell>
        <mxCell id="mrjyGGpw2v-9HANdxBM8-122" value="Flow ID: 1" style="rounded=0;whiteSpace=wrap;html=1;" parent="1" vertex="1">
          <mxGeometry x="130.31" y="705" width="60" height="30" as="geometry" />
        </mxCell>
        <mxCell id="mrjyGGpw2v-9HANdxBM8-125" value="Flow ID: 1" style="rounded=0;whiteSpace=wrap;html=1;" parent="1" vertex="1">
          <mxGeometry x="290" y="694" width="60" height="30" as="geometry" />
        </mxCell>
        <mxCell id="mrjyGGpw2v-9HANdxBM8-126" value="ack" style="rounded=0;whiteSpace=wrap;html=1;" parent="1" vertex="1">
          <mxGeometry x="310.31" y="720.5" width="30" height="20" as="geometry" />
        </mxCell>
        <mxCell id="mrjyGGpw2v-9HANdxBM8-127" value="seq" style="rounded=0;whiteSpace=wrap;html=1;" parent="1" vertex="1">
          <mxGeometry x="310.31" y="740" width="30" height="20" as="geometry" />
        </mxCell>
        <mxCell id="mrjyGGpw2v-9HANdxBM8-129" value="" style="endArrow=classic;html=1;rounded=0;" parent="1" edge="1">
          <mxGeometry width="50" height="50" relative="1" as="geometry">
            <mxPoint x="373.12" y="735" as="sourcePoint" />
            <mxPoint x="373.12" y="675" as="targetPoint" />
          </mxGeometry>
        </mxCell>
        <mxCell id="mrjyGGpw2v-9HANdxBM8-130" value="" style="endArrow=classic;html=1;rounded=0;" parent="1" edge="1">
          <mxGeometry width="50" height="50" relative="1" as="geometry">
            <mxPoint x="373.12" y="735" as="sourcePoint" />
            <mxPoint x="453.12" y="735" as="targetPoint" />
          </mxGeometry>
        </mxCell>
        <mxCell id="mrjyGGpw2v-9HANdxBM8-131" value="t" style="text;html=1;align=center;verticalAlign=middle;resizable=0;points=[];autosize=1;strokeColor=none;fillColor=none;" parent="1" vertex="1">
          <mxGeometry x="435" y="728" width="30" height="30" as="geometry" />
        </mxCell>
        <mxCell id="mrjyGGpw2v-9HANdxBM8-132" value="value" style="text;html=1;align=center;verticalAlign=middle;resizable=0;points=[];autosize=1;strokeColor=none;fillColor=none;" parent="1" vertex="1">
          <mxGeometry x="360.00000000000006" y="653" width="50" height="30" as="geometry" />
        </mxCell>
        <mxCell id="mrjyGGpw2v-9HANdxBM8-136" value="" style="endArrow=none;html=1;rounded=0;fillColor=#f8cecc;strokeColor=#b85450;" parent="1" edge="1">
          <mxGeometry width="50" height="50" relative="1" as="geometry">
            <mxPoint x="373" y="717" as="sourcePoint" />
            <mxPoint x="428" y="679" as="targetPoint" />
          </mxGeometry>
        </mxCell>
        <mxCell id="mrjyGGpw2v-9HANdxBM8-137" value="" style="endArrow=none;html=1;rounded=0;fillColor=#dae8fc;strokeColor=#6c8ebf;" parent="1" edge="1">
          <mxGeometry width="50" height="50" relative="1" as="geometry">
            <mxPoint x="373" y="731" as="sourcePoint" />
            <mxPoint x="435" y="688" as="targetPoint" />
          </mxGeometry>
        </mxCell>
        <mxCell id="mrjyGGpw2v-9HANdxBM8-138" value="ack" style="text;html=1;align=center;verticalAlign=middle;resizable=0;points=[];autosize=1;strokeColor=none;fillColor=none;fontSize=9;fontColor=#7EA6E0;" parent="1" vertex="1">
          <mxGeometry x="400" y="700" width="40" height="20" as="geometry" />
        </mxCell>
        <mxCell id="mrjyGGpw2v-9HANdxBM8-139" value="seq" style="text;html=1;align=center;verticalAlign=middle;resizable=0;points=[];autosize=1;strokeColor=none;fillColor=none;fontSize=9;fontColor=#EA6B66;" parent="1" vertex="1">
          <mxGeometry x="381.56" y="675" width="40" height="20" as="geometry" />
        </mxCell>
        <mxCell id="NyXzZe4B3N27ra_ohTqd-1" value="Flow DB" style="text;html=1;align=center;verticalAlign=middle;resizable=0;points=[];autosize=1;strokeColor=none;fillColor=none;" parent="1" vertex="1">
          <mxGeometry x="208.75" y="740.5" width="70" height="30" as="geometry" />
        </mxCell>
        <mxCell id="NyXzZe4B3N27ra_ohTqd-3" value="Flow ID: 1" style="rounded=0;whiteSpace=wrap;html=1;" parent="1" vertex="1">
          <mxGeometry x="128.43" y="896" width="60" height="29" as="geometry" />
        </mxCell>
        <mxCell id="NyXzZe4B3N27ra_ohTqd-4" value="Flow ID: 1" style="rounded=0;whiteSpace=wrap;html=1;" parent="1" vertex="1">
          <mxGeometry x="123.43" y="901" width="60" height="30" as="geometry" />
        </mxCell>
        <mxCell id="NyXzZe4B3N27ra_ohTqd-5" value="detect_dup_acks" style="rounded=1;whiteSpace=wrap;html=1;fillColor=#ffe6cc;strokeColor=#d79b00;" parent="1" vertex="1">
          <mxGeometry x="188.43" y="830" width="110" height="20" as="geometry" />
        </mxCell>
        <mxCell id="NyXzZe4B3N27ra_ohTqd-6" value="detect_dup_acks" style="rounded=1;whiteSpace=wrap;html=1;fillColor=#d5e8d4;strokeColor=#82b366;" parent="1" vertex="1">
          <mxGeometry x="181.9" y="835" width="110" height="20" as="geometry" />
        </mxCell>
        <mxCell id="NyXzZe4B3N27ra_ohTqd-7" value="" style="rounded=1;whiteSpace=wrap;html=1;" parent="1" vertex="1">
          <mxGeometry x="8.12" y="860" width="93.12" height="100" as="geometry" />
        </mxCell>
        <mxCell id="NyXzZe4B3N27ra_ohTqd-8" value="" style="rounded=1;whiteSpace=wrap;html=1;" parent="1" vertex="1">
          <mxGeometry x="353.9" y="858" width="93.12" height="100" as="geometry" />
        </mxCell>
        <mxCell id="NyXzZe4B3N27ra_ohTqd-9" value="Record" style="text;html=1;align=center;verticalAlign=middle;resizable=0;points=[];autosize=1;strokeColor=none;fillColor=none;" parent="1" vertex="1">
          <mxGeometry x="28.12" y="830" width="60" height="30" as="geometry" />
        </mxCell>
        <mxCell id="NyXzZe4B3N27ra_ohTqd-10" value="Visualize" style="text;html=1;align=center;verticalAlign=middle;resizable=0;points=[];autosize=1;strokeColor=none;fillColor=none;" parent="1" vertex="1">
          <mxGeometry x="369.67999999999995" y="828" width="70" height="30" as="geometry" />
        </mxCell>
        <mxCell id="NyXzZe4B3N27ra_ohTqd-11" value="" style="html=1;verticalLabelPosition=bottom;align=center;labelBackgroundColor=#ffffff;verticalAlign=top;strokeWidth=2;strokeColor=#666666;shadow=0;dashed=0;shape=mxgraph.ios7.icons.data;fillColor=#f5f5f5;fontColor=#333333;" parent="1" vertex="1">
          <mxGeometry x="201.9" y="875" width="60" height="70" as="geometry" />
        </mxCell>
        <mxCell id="NyXzZe4B3N27ra_ohTqd-12" value="" style="endArrow=classic;html=1;rounded=0;exitX=0.992;exitY=0.276;exitDx=0;exitDy=0;exitPerimeter=0;entryX=-0.018;entryY=0.276;entryDx=0;entryDy=0;entryPerimeter=0;curved=1;" parent="1" source="NyXzZe4B3N27ra_ohTqd-11" target="NyXzZe4B3N27ra_ohTqd-11" edge="1">
          <mxGeometry width="50" height="50" relative="1" as="geometry">
            <mxPoint x="264.12" y="952" as="sourcePoint" />
            <mxPoint x="220.12" y="952" as="targetPoint" />
            <Array as="points">
              <mxPoint x="278.12" y="894" />
              <mxPoint x="278.12" y="850" />
              <mxPoint x="178.12" y="850" />
              <mxPoint x="178.12" y="890" />
            </Array>
          </mxGeometry>
        </mxCell>
        <mxCell id="NyXzZe4B3N27ra_ohTqd-13" value="" style="endArrow=classic;html=1;rounded=0;exitX=1;exitY=0.5;exitDx=0;exitDy=0;entryX=-0.018;entryY=0.496;entryDx=0;entryDy=0;entryPerimeter=0;" parent="1" source="NyXzZe4B3N27ra_ohTqd-7" target="NyXzZe4B3N27ra_ohTqd-11" edge="1">
          <mxGeometry width="50" height="50" relative="1" as="geometry">
            <mxPoint x="208.12" y="960" as="sourcePoint" />
            <mxPoint x="258.12" y="910" as="targetPoint" />
          </mxGeometry>
        </mxCell>
        <mxCell id="NyXzZe4B3N27ra_ohTqd-14" value="" style="endArrow=classic;html=1;rounded=0;exitX=0.998;exitY=0.486;exitDx=0;exitDy=0;exitPerimeter=0;entryX=0;entryY=0.5;entryDx=0;entryDy=0;" parent="1" source="NyXzZe4B3N27ra_ohTqd-11" target="NyXzZe4B3N27ra_ohTqd-8" edge="1">
          <mxGeometry width="50" height="50" relative="1" as="geometry">
            <mxPoint x="151.12" y="920" as="sourcePoint" />
            <mxPoint x="308.12" y="912" as="targetPoint" />
          </mxGeometry>
        </mxCell>
        <mxCell id="NyXzZe4B3N27ra_ohTqd-15" value="Process" style="text;html=1;align=center;verticalAlign=middle;resizable=0;points=[];autosize=1;strokeColor=none;fillColor=none;" parent="1" vertex="1">
          <mxGeometry x="204.54000000000002" y="800" width="70" height="30" as="geometry" />
        </mxCell>
        <mxCell id="NyXzZe4B3N27ra_ohTqd-16" value="1" style="ellipse;whiteSpace=wrap;html=1;aspect=fixed;fillColor=#000000;fontStyle=1;fontColor=#FFFFFF;" parent="1" vertex="1">
          <mxGeometry x="21.56" y="837.5" width="15" height="15" as="geometry" />
        </mxCell>
        <mxCell id="NyXzZe4B3N27ra_ohTqd-17" value="2" style="ellipse;whiteSpace=wrap;html=1;aspect=fixed;fillColor=#000000;fontStyle=1;fontColor=#FFFFFF;" parent="1" vertex="1">
          <mxGeometry x="196.87000000000003" y="807.5" width="15" height="15" as="geometry" />
        </mxCell>
        <mxCell id="NyXzZe4B3N27ra_ohTqd-18" value="3" style="ellipse;whiteSpace=wrap;html=1;aspect=fixed;fillColor=#000000;fontStyle=1;fontColor=#FFFFFF;" parent="1" vertex="1">
          <mxGeometry x="361.24" y="835.5" width="15" height="15" as="geometry" />
        </mxCell>
        <mxCell id="NyXzZe4B3N27ra_ohTqd-19" value="detect_dup_acks" style="rounded=1;whiteSpace=wrap;html=1;fillColor=#f8cecc;strokeColor=#b85450;" parent="1" vertex="1">
          <mxGeometry x="176.9" y="840" width="110" height="20" as="geometry" />
        </mxCell>
        <mxCell id="NyXzZe4B3N27ra_ohTqd-20" value="XDP" style="rounded=1;whiteSpace=wrap;html=1;" parent="1" vertex="1">
          <mxGeometry x="18.120000000000005" y="866" width="70" height="20" as="geometry" />
        </mxCell>
        <mxCell id="NyXzZe4B3N27ra_ohTqd-22" value="TC" style="rounded=1;whiteSpace=wrap;html=1;" parent="1" vertex="1">
          <mxGeometry x="18.12" y="889.5" width="70" height="20.5" as="geometry" />
        </mxCell>
        <mxCell id="NyXzZe4B3N27ra_ohTqd-24" value="Flow ID: 1" style="rounded=0;whiteSpace=wrap;html=1;" parent="1" vertex="1">
          <mxGeometry x="118.43" y="905" width="60" height="30" as="geometry" />
        </mxCell>
        <mxCell id="NyXzZe4B3N27ra_ohTqd-25" value="Flow ID: 1" style="rounded=0;whiteSpace=wrap;html=1;" parent="1" vertex="1">
          <mxGeometry x="278.12" y="894" width="60" height="30" as="geometry" />
        </mxCell>
        <mxCell id="NyXzZe4B3N27ra_ohTqd-26" value="ack" style="rounded=0;whiteSpace=wrap;html=1;" parent="1" vertex="1">
          <mxGeometry x="298.43" y="920.5" width="30" height="20" as="geometry" />
        </mxCell>
        <mxCell id="NyXzZe4B3N27ra_ohTqd-27" value="dup" style="rounded=0;whiteSpace=wrap;html=1;" parent="1" vertex="1">
          <mxGeometry x="298.43" y="940" width="30" height="20" as="geometry" />
        </mxCell>
        <mxCell id="NyXzZe4B3N27ra_ohTqd-28" value="" style="endArrow=classic;html=1;rounded=0;" parent="1" edge="1">
          <mxGeometry width="50" height="50" relative="1" as="geometry">
            <mxPoint x="361.24" y="935" as="sourcePoint" />
            <mxPoint x="361.24" y="875" as="targetPoint" />
          </mxGeometry>
        </mxCell>
        <mxCell id="NyXzZe4B3N27ra_ohTqd-29" value="" style="endArrow=classic;html=1;rounded=0;" parent="1" edge="1">
          <mxGeometry width="50" height="50" relative="1" as="geometry">
            <mxPoint x="361.24" y="935" as="sourcePoint" />
            <mxPoint x="441.24" y="935" as="targetPoint" />
          </mxGeometry>
        </mxCell>
        <mxCell id="NyXzZe4B3N27ra_ohTqd-30" value="t" style="text;html=1;align=center;verticalAlign=middle;resizable=0;points=[];autosize=1;strokeColor=none;fillColor=none;" parent="1" vertex="1">
          <mxGeometry x="423.12" y="928" width="30" height="30" as="geometry" />
        </mxCell>
        <mxCell id="NyXzZe4B3N27ra_ohTqd-31" value="value" style="text;html=1;align=center;verticalAlign=middle;resizable=0;points=[];autosize=1;strokeColor=none;fillColor=none;" parent="1" vertex="1">
          <mxGeometry x="348.12000000000006" y="853" width="50" height="30" as="geometry" />
        </mxCell>
        <mxCell id="NyXzZe4B3N27ra_ohTqd-32" value="" style="endArrow=none;html=1;rounded=0;fillColor=#f8cecc;strokeColor=#b85450;" parent="1" edge="1">
          <mxGeometry width="50" height="50" relative="1" as="geometry">
            <mxPoint x="393" y="935" as="sourcePoint" />
            <mxPoint x="393" y="885" as="targetPoint" />
          </mxGeometry>
        </mxCell>
        <mxCell id="NyXzZe4B3N27ra_ohTqd-33" value="" style="endArrow=none;html=1;rounded=0;fillColor=#dae8fc;strokeColor=#6c8ebf;" parent="1" edge="1">
          <mxGeometry width="50" height="50" relative="1" as="geometry">
            <mxPoint x="361.12" y="931" as="sourcePoint" />
            <mxPoint x="391" y="910" as="targetPoint" />
          </mxGeometry>
        </mxCell>
        <mxCell id="NyXzZe4B3N27ra_ohTqd-34" value="ack" style="text;html=1;align=center;verticalAlign=middle;resizable=0;points=[];autosize=1;strokeColor=none;fillColor=none;fontSize=9;fontColor=#7EA6E0;" parent="1" vertex="1">
          <mxGeometry x="410" y="894" width="40" height="20" as="geometry" />
        </mxCell>
        <mxCell id="NyXzZe4B3N27ra_ohTqd-35" value="dup" style="text;html=1;align=center;verticalAlign=middle;resizable=0;points=[];autosize=1;strokeColor=none;fillColor=none;fontSize=9;fontColor=#EA6B66;" parent="1" vertex="1">
          <mxGeometry x="380.46" y="866" width="40" height="20" as="geometry" />
        </mxCell>
        <mxCell id="NyXzZe4B3N27ra_ohTqd-36" value="Flow DB" style="text;html=1;align=center;verticalAlign=middle;resizable=0;points=[];autosize=1;strokeColor=none;fillColor=none;" parent="1" vertex="1">
          <mxGeometry x="196.87" y="940.5" width="70" height="30" as="geometry" />
        </mxCell>
        <mxCell id="NyXzZe4B3N27ra_ohTqd-37" value="" style="endArrow=none;html=1;rounded=0;fillColor=#dae8fc;strokeColor=#6c8ebf;" parent="1" edge="1">
          <mxGeometry width="50" height="50" relative="1" as="geometry">
            <mxPoint x="391" y="910" as="sourcePoint" />
            <mxPoint x="412" y="910" as="targetPoint" />
          </mxGeometry>
        </mxCell>
        <mxCell id="NyXzZe4B3N27ra_ohTqd-38" value="" style="endArrow=none;html=1;rounded=0;fillColor=#dae8fc;strokeColor=#6c8ebf;" parent="1" edge="1">
          <mxGeometry width="50" height="50" relative="1" as="geometry">
            <mxPoint x="411" y="910" as="sourcePoint" />
            <mxPoint x="438" y="888" as="targetPoint" />
          </mxGeometry>
        </mxCell>
        <mxCell id="NyXzZe4B3N27ra_ohTqd-39" value="" style="endArrow=none;html=1;rounded=0;fillColor=#f8cecc;strokeColor=#b85450;" parent="1" edge="1">
          <mxGeometry width="50" height="50" relative="1" as="geometry">
            <mxPoint x="399.78" y="935.5" as="sourcePoint" />
            <mxPoint x="399.78" y="885.5" as="targetPoint" />
          </mxGeometry>
        </mxCell>
        <mxCell id="NyXzZe4B3N27ra_ohTqd-40" value="" style="endArrow=none;html=1;rounded=0;fillColor=#f8cecc;strokeColor=#b85450;" parent="1" edge="1">
          <mxGeometry width="50" height="50" relative="1" as="geometry">
            <mxPoint x="409.67999999999995" y="935.5" as="sourcePoint" />
            <mxPoint x="409.67999999999995" y="885.5" as="targetPoint" />
          </mxGeometry>
        </mxCell>
        <mxCell id="NyXzZe4B3N27ra_ohTqd-41" value="Plugins" style="text;html=1;align=center;verticalAlign=middle;resizable=0;points=[];autosize=1;strokeColor=none;fillColor=none;fontSize=9;fontColor=#8C8C8C;fontStyle=1" parent="1" vertex="1">
          <mxGeometry x="260.31" y="815" width="50" height="20" as="geometry" />
        </mxCell>
        <mxCell id="dZN5whuwRcCxzh8pxac1-1" value="Tracepoints" style="rounded=1;whiteSpace=wrap;html=1;" vertex="1" parent="1">
          <mxGeometry x="18.119999999999997" y="914" width="70" height="20.5" as="geometry" />
        </mxCell>
        <mxCell id="dZN5whuwRcCxzh8pxac1-2" value="..." style="rounded=1;whiteSpace=wrap;html=1;" vertex="1" parent="1">
          <mxGeometry x="18.119999999999997" y="937.5" width="70" height="20.5" as="geometry" />
        </mxCell>
      </root>
    </mxGraphModel>
  </diagram>
</mxfile>
